<svg width="24" height="24" viewBox="0 0 24 24" fill="none" xmlns="http://www.w3.org/2000/svg">
<path d="M4.19839 19.6416C3.23197 18.6752 3.87296 16.6462 3.38106 15.4574C2.87114 14.2249 1 13.233 1 11.92C1 10.6069 2.87115 9.61504 3.38107 8.38263C3.87297 7.19377 3.23197 5.16481 4.19839 4.19839C5.16481 3.23197 7.19378 3.87296 8.38264 3.38106C9.61507 2.87114 10.607 1 11.92 1C13.2331 1 14.225 2.87115 15.4574 3.38107C16.6462 3.87297 18.6752 3.23197 19.6416 4.19839C20.608 5.16481 19.967 7.19378 20.4589 8.38264C20.9689 9.61507 22.84 10.607 22.84 11.92C22.84 13.2331 20.9688 14.225 20.4589 15.4574C19.967 16.6462 20.608 18.6752 19.6416 19.6416C18.6752 20.608 16.6462 19.967 15.4574 20.4589C14.2249 20.9689 13.233 22.84 11.92 22.84C10.6069 22.84 9.61504 20.9688 8.38263 20.4589C7.19377 19.967 5.16481 20.608 4.19839 19.6416Z" fill="#E34646" stroke="#E34646" stroke-width="1.7" stroke-linecap="round" stroke-linejoin="round"/>
<path d="M16.54 9.39999L10.38 15.28L7.29999 12.34" stroke="white" stroke-width="1.7" stroke-linecap="round" stroke-linejoin="round"/>
</svg>
